PathFileType	4	(X/Y/Z)	7_coords_data.trc
DataRate	CameraRate	NumFrames	NumMarkers	Units	OrigDataRate	OrigDataStartFrame	OrigNumFrames
30.0	30.0	7	21	m	30.0	32	62
Frame#	Time	THUMB_TIP	THUMB_IP	THUMB_MCP	THUMB_CMC	INDEX_TIP	INDEX_DIP	INDEX_PIP	INDEX_MCP	MIDDLE_TIP	MIDDLE_DIP	MIDDLE_PIP	MIDDLE_MCP	RING_TIP	RING_DIP	RING_PIP	RING_MCP	PINKY_TIP	PINKY_DIP	PINKY_PIP	PINKY_MCP	WRIST
X1	Y1	Z1	X2	Y2	Z2	X3	Y3	Z3	X4	Y4	Z4	X5	Y5	Z5	X6	Y6	Z6	X7	Y7	Z7	X8	Y8	Z8	X9	Y9	Z9	X10	Y10	Z10	X11	Y11	Z11	X12	Y12	Z12	X13	Y13	Z13	X14	Y14	Z14	X15	Y15	Z15	X16	Y16	Z16	X17	Y17	Z17	X18	Y18	Z18	X19	Y19	Z19	X20	Y20	Z20	X21	Y21	Z21
30	1.0333333333333288	0.4730909510161902	-0.015369435599170478	-0.16912893007550855	0.4808654433804054	-0.01942179157794599	-0.14788897528506617	0.4765089545654456	-0.0315640720642989	-0.11956220296988929	0.4770223555024705	-0.03172495060507019	-0.07495726448127593	0.505171494200662	-0.019444307645072323	-0.1057756365756034	0.5231377589567969	-0.01817932167538605	-0.1076764630297965	0.535471287534006	0.00027600573024488817	-0.11947878467369943	0.4947467842098891	0.012555613713560732	-0.12156736093040676	0.5041591555240024	-0.020687922757201438	-0.08742170830039708	0.5217911323086145	-0.016674033520760023	-0.08642066491248712	0.5397378077009992	0.004448704841106488	-0.0954293449743222	0.5021979926293163	0.02786233068755173	-0.10165126831895721	0.5032368280504957	-0.008204104755146213	-0.07343214865888947	0.5208331618943651	-0.005420185015676537	-0.07067192654114351	0.5375405633484094	0.012724211294186771	-0.07411047248442038	0.5062560449307512	0.0375179542839168	-0.08053464946940692	0.5043870883727235	-0.0076096546169033275	-0.05548432593615604	0.5210878317475811	-0.005868709371790404	-0.052159528140700906	0.532877710770149	0.01149495699609382	-0.05271976192941841	0.506623303249055	0.03586096022205487	-0.056949114540490786	0.46228308100186094	-0.023011742144276925	-0.051989820119430985
31	1.0666666666666622	0.47315262590784246	-0.0150767456988542	-0.16909580308030903	0.4808918654239426	-0.01917572254114297	-0.14785192018290028	0.47652654271224615	-0.03142579853158678	-0.11957295987932659	0.47702117622469625	-0.03169768074199231	-0.07496834781115558	0.5051886327819841	-0.019334848743812083	-0.1058167506565102	0.5231482150095914	-0.01803057982889955	-0.10775383320699838	0.5354190179602802	0.00047500835939906505	-0.11954282950653394	0.4946628683781803	0.012662575624482253	-0.1215517021756114	0.5042012749861864	-0.02059492633622284	-0.0875009779607161	0.5218280595541007	-0.0165572516292104	-0.08650415864073402	0.539740031349053	0.0045964058237735195	-0.09550935673842453	0.5021397545166458	0.02794360888085834	-0.1016146996884646	0.5032351749225605	-0.00812431587995499	-0.07345658532210997	0.5208336131172266	-0.005325794713785692	-0.07072468993776249	0.537543434849233	0.01281355208051771	-0.07417808458080044	0.5062087167656766	0.0375719777410396	-0.0804928795447295	0.5043614833799483	-0.007519237106434651	-0.05551026463575226	0.5210687466116398	-0.005803718558455184	-0.05220506397338576	0.5328658426607022	0.011554838500625442	-0.05277166845257508	0.5065769284982301	0.035899025843374566	-0.0569113527133992	0.4622830810018609	-0.023011742144276925	-0.051989820119430985
32	1.0999999999999952	0.4731988588634954	-0.014709163350645094	-0.1690424798315482	0.4809135604948065	-0.018868331983679765	-0.14780137122060633	0.47654427302226793	-0.03125575129900671	-0.11958291680353061	0.4770238092071197	-0.031664475824411675	-0.07497918389573743	0.5051944301554155	-0.019237728469386983	-0.1058525260714237	0.5231435742013255	-0.01786826782301243	-0.10784069245208805	0.5353422530647466	0.0006940878512747828	-0.11961528453879666	0.4945545242589383	0.012789765658642205	-0.1215367036092233	0.5042107931277202	-0.02048844505468983	-0.08758673441844356	0.521835819893621	-0.016443462961658106	-0.08658846022347955	0.539706755916805	0.004757091191948004	-0.09556485700811879	0.5020553496340516	0.028045954293639097	-0.10157720940645099	0.5032473974543372	-0.00802830878640226	-0.07348660221707126	0.5208475968996995	-0.005208090203912552	-0.07078857578457509	0.53754365368441	0.012941458099238967	-0.07425492303107184	0.5061404572450849	0.0376453134582202	-0.08044197546302223	0.504342359583775	-0.007424309084144598	-0.05552861341829651	0.5210610567580471	-0.005716797142277685	-0.05227752625192206	0.5328515790290359	0.011646511372067736	-0.05283530847911877	0.5065104973780369	0.03595279850616684	-0.056864610429846585	0.4622830810018609	-0.023011742144276925	-0.051989820119430985
33	1.1333333333333284	0.4732516664033152	-0.014304024681312977	-0.1689821669575744	0.48094500445130806	-0.01852742672836094	-0.1477459849836813	0.47657310043902135	-0.03106022762409677	-0.11959220447350494	0.47703123536494024	-0.031623174420297606	-0.07498992646784364	0.5052115384246123	-0.019102249750993283	-0.10590219001645662	0.5231519357932839	-0.01767379857409468	-0.1079274478986475	0.535258395678091	0.0009540451210444667	-0.11969379403187974	0.4944356412610023	0.0129473126037436	-0.12151048082120475	0.5042086655818142	-0.02039083683944498	-0.08763376597862171	0.5218307163182576	-0.016326678275059847	-0.08666116996498174	0.5396565390195511	0.004927923825469693	-0.09559937361953197	0.5019621549052036	0.028169604825946437	-0.10152437079354837	0.5032974080882965	-0.007900357248746048	-0.07350237344027644	0.5208985894523162	-0.005045564498979416	-0.0708474585740766	0.5375634930165529	0.013128158950414748	-0.0743369777643983	0.5060577106902577	0.03773996444867611	-0.08036736283700041	0.5043269628233851	-0.007339981182243105	-0.05551589964422299	0.5210529019618828	-0.005610621601092269	-0.05231398219145322	0.5328207768363298	0.01176776644295241	-0.0528803468531045	0.5064192301503201	0.036026557177651464	-0.056798618879971396	0.4622830810018609	-0.023011742144276925	-0.051989820119430985
34	1.1666666666666616	0.47333007046502734	-0.01390481597753157	-0.16891293693871356	0.48100079364530857	-0.01818845504141431	-0.1476806397888083	0.47662169988808084	-0.030871296797077896	-0.1195952510098327	0.4770445174212213	-0.03158727534391392	-0.07499481827589904	0.5052331502840711	-0.01892999405112117	-0.10597033682433432	0.5231729600931809	-0.01748645806025617	-0.10799009618030908	0.5351887664670004	0.0012065079056731154	-0.11974608416871269	0.49433302938509116	0.013099440217051561	-0.12147900151552438	0.5042157408027551	-0.02029778743291255	-0.08765859590391611	0.5218323480284677	-0.016204621021426724	-0.08670931270968152	0.5396219424223256	0.0050973383289366625	-0.09560686344780478	0.5018856824922067	0.028288607504751928	-0.10146242845054942	0.50335187059438	-0.007767765055058162	-0.07351341222832775	0.5209538043277486	-0.004895773487818222	-0.07088214004860127	0.5375837086636526	0.013308959398781628	-0.07437698787164537	0.5059853928422935	0.037833027986746814	-0.0802793036160323	0.5043098197668539	-0.0072274152890619	-0.0555217751947501	0.5210374663741719	-0.005503003266971951	-0.0523261153006509	0.5327915163797583	0.011884824996605814	-0.05288981357321776	0.5063333751588963	0.03609802354269642	-0.05670704166497831	0.4622830810018609	-0.023011742144276925	-0.051989820119430985
35	1.1999999999999948	0.4734283233073239	-0.013484872295075334	-0.16883630869743704	0.4810792944484653	-0.01783564770875634	-0.14761053677043434	0.4766975436374283	-0.030667141236341844	-0.11959316655691321	0.47706846602972536	-0.03154498560654195	-0.07499516429402464	0.5052682790561764	-0.018772877035948432	-0.10601044901930179	0.523207966405348	-0.017309181637905846	-0.1080167425162083	0.5351607814805395	0.0014394434178448545	-0.11974828560725759	0.4942778097740724	0.013246097030637505	-0.12142806205540368	0.5042465014827171	-0.020211380645601573	-0.08765619868481278	0.5218593088768887	-0.01610061917804395	-0.08671245303440767	0.5396175103713111	0.005246472160383764	-0.09556443140493742	0.5018506715140614	0.02839907530904706	-0.10137569384704492	0.5034084047707383	-0.007633315593427614	-0.0735101797436053	0.5210102717934822	-0.004761507904586404	-0.07087826068862679	0.537622524437614	0.013463190479469644	-0.07435294195425768	0.5059504034263365	0.03791599262228096	-0.08015449795342877	0.5042841812648751	-0.007158178064721521	-0.05548783749284791	0.521010141704455	-0.00543320272702541	-0.052283667169980785	0.5327530180912028	0.01196228765018259	-0.0528438347360114	0.5062671268831385	0.03615686836770715	-0.05658593064843487	0.46228308100186094	-0.023011742144276925	-0.051989820119430985
36	1.233333333333328	0.47354495699666344	-0.012989395559851902	-0.16873343289179077	0.48118870072922304	-0.01742170079944183	-0.1475219300686983	0.4768179602251702	-0.030424250496507432	-0.11958180965339649	0.47711462972942703	-0.03148600061507201	-0.07498725086097235	0.5053003334601401	-0.018638183221125093	-0.10597117694440272	0.5232470538048954	-0.017174943360735107	-0.10791389616706748	0.5352164831954808	0.001600892911321039	-0.11958482437988494	0.49433118943203125	0.013390314763099154	-0.12132791940806309	0.5042521875906653	-0.020173213636180853	-0.0875727520000622	0.5218636998880664	-0.016067278811092156	-0.08658485837693597	0.539648323912536	0.005291751021876512	-0.09535460996421652	0.5019170909573357	0.028485679981625434	-0.1012319937436319	0.503401130366853	-0.007545073566345928	-0.07343659771873268	0.5210025202426702	-0.004726466918428707	-0.07074465956866449	0.5376372444795411	0.013490879143410406	-0.07414968982204861	0.5059917233815203	0.03797611255518718	-0.07995961006294161	0.5042236870225357	-0.007073228130901277	-0.05543999842209835	0.5209383927301272	-0.005403368604162573	-0.05214907419483794	0.53270682507976	0.011976337111468505	-0.052660785314680325	0.5062385337646407	0.0361937875938132	-0.056379400378539946	0.4622830810018609	-0.023011742144276925	-0.051989820119430985
